<svg xmlns="http://www.w3.org/2000/svg" xmlns:xlink="http://www.w3.org/1999/xlink" width="500" zoomAndPan="magnify" viewBox="0 0 375 374.999991" height="500" preserveAspectRatio="xMidYMid meet" version="1.2"><defs><clipPath id="9502b917fc"><path d="M 156 144.882812 L 231 144.882812 L 231 212 L 156 212 Z M 156 144.882812 "/></clipPath><clipPath id="c1e69b9c64"><path d="M 143 209 L 234.6875 209 L 234.6875 216.882812 L 143 216.882812 Z M 143 209 "/></clipPath><clipPath id="af72b6d8d1"><path d="M 140.1875 160 L 234.6875 160 L 234.6875 214 L 140.1875 214 Z M 140.1875 160 "/></clipPath><clipPath id="078bff04ec"><path d="M 222.4375 138.695312 L 234.8125 138.695312 L 234.8125 151.070312 L 222.4375 151.070312 Z M 222.4375 138.695312 "/></clipPath><clipPath id="9ed76140de"><path d="M 228.625 138.695312 C 225.207031 138.695312 222.4375 141.46875 222.4375 144.882812 C 222.4375 148.300781 225.207031 151.070312 228.625 151.070312 C 232.042969 151.070312 234.8125 148.300781 234.8125 144.882812 C 234.8125 141.46875 232.042969 138.695312 228.625 138.695312 Z M 228.625 138.695312 "/></clipPath></defs><g id="9bc8c499ee"><g clip-rule="nonzero" clip-path="url(#9502b917fc)"><path style=" stroke:none;fill-rule:evenodd;fill:#0775b4;fill-opacity:1;" d="M 193.414062 144.886719 C 172.878906 144.886719 156.230469 161.535156 156.230469 182.070312 C 156.230469 194.125 161.96875 204.839844 170.859375 211.628906 L 215.96875 211.628906 C 224.859375 204.835938 230.597656 194.125 230.597656 182.070312 C 230.597656 177.386719 229.730469 172.902344 228.148438 168.773438 C 225.882812 169.003906 224.484375 169.042969 223.949219 168.894531 C 223.046875 168.582031 222.273438 168.472656 221.636719 168.578125 C 220.746094 168.992188 219.996094 169.007812 219.386719 168.621094 C 208.558594 168.363281 204.792969 168.125 208.09375 167.90625 C 215.945312 167.824219 220.089844 167.738281 220.527344 167.644531 C 221.21875 167.570312 221.746094 167.4375 222.101562 167.25 C 222.671875 166.84375 223.984375 166.820312 226.035156 167.171875 C 226.609375 167.296875 227.132812 167.375 227.59375 167.402344 C 227.109375 166.273438 226.570312 165.175781 225.976562 164.109375 C 200.746094 164.160156 188.121094 163.800781 188.109375 163.027344 C 189.742188 162.933594 197.058594 162.800781 210.070312 162.640625 C 211.285156 162.65625 212.242188 162.484375 212.933594 162.128906 C 214.292969 161.066406 215.714844 160.929688 217.195312 161.726562 C 218.019531 162.070312 218.605469 161.941406 218.96875 161.339844 C 219.445312 160.609375 220.238281 160.410156 221.347656 160.746094 C 222.015625 161.425781 222.695312 161.453125 223.386719 160.835938 C 223.464844 160.675781 223.558594 160.539062 223.660156 160.429688 C 216.914062 151.015625 205.882812 144.882812 193.417969 144.882812 Z M 193.414062 144.886719 "/></g><g clip-rule="nonzero" clip-path="url(#c1e69b9c64)"><path style=" stroke:none;fill-rule:evenodd;fill:#000000;fill-opacity:1;" d="M 188.972656 209.050781 C 213.992188 209.050781 234.273438 210.789062 234.273438 212.933594 C 234.273438 215.078125 213.988281 216.816406 188.972656 216.816406 C 163.953125 216.816406 143.675781 215.078125 143.675781 212.933594 C 143.675781 210.789062 163.957031 209.050781 188.972656 209.050781 Z M 188.972656 209.050781 "/></g><g clip-rule="nonzero" clip-path="url(#af72b6d8d1)"><path style=" stroke:none;fill-rule:evenodd;fill:#ffffff;fill-opacity:1;" d="M 146.414062 161.554688 L 146.953125 162.339844 L 159.96875 165.015625 C 160.613281 164.371094 161.53125 164.515625 162.34375 164.648438 L 162.347656 164.648438 L 162.425781 164.664062 L 178.8125 168.328125 C 178.964844 168.242188 179.117188 168.175781 179.277344 168.125 C 179.660156 168.007812 180.039062 168 180.417969 168.105469 L 180.570312 168.144531 L 180.6875 168.21875 L 185.949219 171.328125 C 186.378906 171.339844 186.769531 171.382812 187.152344 171.472656 C 187.636719 171.585938 188.101562 171.769531 188.585938 172.042969 C 190.289062 172.992188 191.890625 174.152344 193.351562 175.46875 C 194.871094 176.835938 196.246094 178.359375 197.429688 179.976562 C 198.777344 181.820312 199.714844 183.121094 200.1875 183.792969 C 200.480469 183.769531 200.8125 183.746094 201.160156 183.722656 C 201.644531 183.695312 202.175781 183.671875 202.644531 183.667969 C 204.351562 183.652344 205.652344 183.644531 206.644531 183.640625 C 207.625 183.636719 208.292969 183.640625 208.746094 183.644531 C 209.402344 183.648438 210.589844 183.839844 211.554688 184.148438 C 212.441406 184.433594 213.230469 184.863281 213.550781 185.441406 L 213.632812 185.585938 L 213.667969 185.75 L 213.851562 186.660156 L 228.503906 187.003906 C 229.273438 187 229.910156 187.191406 230.40625 187.578125 C 230.9375 187.988281 231.269531 188.578125 231.394531 189.339844 L 231.398438 189.363281 L 232.035156 189.382812 L 232.183594 189.386719 L 232.316406 189.425781 C 233 189.628906 233.527344 189.914062 233.886719 190.289062 C 234.335938 190.753906 234.535156 191.304688 234.472656 191.933594 C 234.554688 193.757812 234.617188 195.472656 234.644531 197.070312 C 234.675781 198.675781 234.679688 200.136719 234.652344 201.457031 L 234.652344 201.523438 C 234.605469 202.152344 234.449219 202.683594 234.1875 203.105469 C 233.878906 203.617188 233.441406 203.957031 232.875 204.128906 L 232.71875 204.175781 L 232.554688 204.175781 L 226.777344 204.195312 C 227.066406 204.59375 227.304688 205.046875 227.480469 205.535156 C 227.613281 205.90625 227.71875 206.300781 227.789062 206.703125 C 228.039062 209.554688 227.132812 211.449219 225.070312 212.402344 C 225.070312 212.402344 213.597656 211.890625 190.648438 210.871094 C 190.648438 210.871094 187.644531 211.753906 181.644531 213.527344 C 179.082031 212.53125 177.917969 210.632812 178.160156 207.828125 C 178.359375 206.59375 178.882812 205.46875 179.710938 204.738281 C 180.46875 204.070312 181.882812 203.488281 183.433594 203.027344 C 184.648438 202.664062 185.96875 202.363281 187.113281 202.148438 L 187.089844 197.601562 L 187.085938 197.089844 L 187.46875 196.765625 L 189.679688 194.878906 L 186.289062 188.175781 L 186.242188 188.078125 L 186.210938 187.960938 C 186.113281 187.589844 186.070312 187.238281 186.082031 186.910156 C 186.085938 186.746094 186.105469 186.585938 186.140625 186.433594 L 185.523438 185.214844 C 184.484375 184.398438 183.105469 183.664062 181.671875 183.042969 C 179.589844 182.136719 177.402344 181.476562 175.898438 181.125 L 157.71875 177.269531 L 166.375 197.582031 L 166.425781 197.703125 L 166.449219 197.832031 L 166.605469 198.785156 L 167.273438 199.277344 L 167.707031 199.59375 L 167.71875 200.140625 L 167.726562 200.59375 C 168.011719 200.734375 168.222656 200.917969 168.359375 201.140625 L 168.394531 201.203125 L 169.636719 203.5625 L 169.949219 203.707031 L 170.285156 203.855469 L 170.460938 204.167969 L 172.21875 207.296875 L 172.296875 207.4375 L 172.335938 207.617188 C 172.375 207.808594 172.386719 207.945312 172.398438 208.085938 L 172.355469 208.089844 L 172.351562 208.085938 L 172.296875 208.089844 L 172.351562 208.085938 C 172.292969 208.066406 172.210938 208.007812 172.292969 208.085938 L 172.300781 208.09375 L 175.257812 211.054688 L 175.375 211.101562 L 177.558594 213.242188 C 177.558594 213.242188 170.789062 213.464844 157.253906 213.902344 C 154.136719 213.371094 152.480469 210.679688 153.238281 207.617188 C 153.617188 206.554688 154.296875 205.589844 155.199219 204.8125 L 155.523438 203.394531 L 153.566406 200.824219 C 153.128906 200.433594 152.839844 199.980469 152.699219 199.464844 C 152.589844 199.0625 152.578125 198.640625 152.660156 198.207031 L 151.261719 195.644531 C 151.070312 195.546875 150.902344 195.445312 150.753906 195.335938 C 150.453125 195.113281 150.222656 194.859375 150.074219 194.570312 L 150.070312 194.566406 L 142.945312 180.816406 L 142.785156 180.511719 L 142.832031 180.183594 C 142.726562 180.101562 142.632812 180.015625 142.550781 179.925781 C 142.253906 179.613281 142.070312 179.25 142 178.847656 L 140.789062 173.324219 L 140.773438 173.253906 L 140.765625 173.160156 L 140.257812 165.34375 C 140.195312 164.449219 140.382812 163.585938 140.769531 162.859375 C 141.167969 162.105469 141.777344 161.492188 142.550781 161.121094 C 143.078125 160.867188 143.730469 160.707031 144.390625 160.726562 C 144.988281 160.746094 145.601562 160.910156 146.136719 161.28125 L 146.300781 161.398438 L 146.417969 161.566406 Z M 156.609375 195.542969 L 155.351562 193.710938 C 155.339844 193.757812 155.328125 193.808594 155.3125 193.855469 L 156.28125 195.644531 L 156.289062 195.644531 Z M 152.570312 167.515625 L 152.738281 167.660156 L 152.953125 167.597656 Z M 152.570312 167.515625 "/></g><path style=" stroke:none;fill-rule:evenodd;fill:#000000;fill-opacity:1;" d="M 145.515625 162.175781 L 146.300781 163.316406 L 160.484375 166.234375 C 160.753906 165.488281 161.53125 165.621094 162.191406 165.726562 C 173.421875 168.238281 179.035156 169.5 179.035156 169.5 C 179.421875 169.175781 179.789062 169.058594 180.132812 169.15625 C 183.894531 171.378906 185.644531 172.414062 185.644531 172.414062 C 186.574219 172.402344 187.269531 172.558594 188.058594 172.996094 C 191.382812 174.847656 194.304688 177.554688 196.546875 180.617188 C 198.5625 183.363281 199.660156 184.929688 199.660156 184.929688 C 200.246094 184.871094 201.6875 184.765625 202.652344 184.753906 C 206.078125 184.722656 207.839844 184.726562 208.738281 184.730469 C 209.730469 184.734375 212.199219 185.261719 212.589844 185.96875 C 212.863281 187.3125 212.949219 187.730469 212.949219 187.730469 C 223.308594 187.972656 228.484375 188.097656 228.484375 188.097656 C 229.546875 188.085938 230.15625 188.558594 230.3125 189.515625 C 230.375 190.125 230.402344 190.429688 230.402344 190.429688 C 231.46875 190.460938 232.003906 190.472656 232.003906 190.472656 C 233.007812 190.769531 233.464844 191.242188 233.375 191.890625 C 233.546875 195.636719 233.613281 198.816406 233.558594 201.4375 C 233.488281 202.351562 233.152344 202.898438 232.554688 203.082031 C 224.542969 203.113281 220.542969 203.128906 220.542969 203.128906 C 222.09375 203.355469 223.242188 203.492188 223.972656 203.625 C 228.078125 204.355469 227.496094 212.539062 223.773438 212.914062 C 218.441406 213.472656 212.800781 213.964844 206.84375 214.390625 C 206.191406 214.433594 205.601562 214.445312 204.949219 214.445312 C 203.03125 214.445312 201.933594 214.445312 201.25 214.445312 C 200.433594 214.445312 199.609375 214.226562 199.121094 213.40625 C 190.441406 213.742188 186.355469 213.898438 186.355469 213.898438 C 184.5625 213.839844 183.617188 213.8125 182.925781 213.789062 C 178.839844 213.660156 178.183594 207.53125 180.433594 205.554688 C 181.953125 204.21875 187.226562 203.132812 189.277344 202.910156 C 188.5625 202.578125 188.203125 202.410156 188.203125 202.410156 C 188.191406 199.195312 188.183594 197.589844 188.183594 197.589844 L 191.050781 195.144531 L 187.265625 187.675781 C 187.125 187.132812 187.140625 186.6875 187.3125 186.324219 C 186.640625 185 186.390625 184.503906 186.390625 184.503906 C 183.710938 182.292969 178.820312 180.671875 176.121094 180.046875 C 162.625 177.183594 155.882812 175.75 155.882812 175.75 C 162.203125 190.582031 165.363281 198 165.363281 198 C 165.515625 198.929688 165.589844 199.394531 165.589844 199.394531 C 166.277344 199.898438 166.617188 200.148438 166.617188 200.148438 C 166.632812 200.96875 166.640625 201.382812 166.640625 201.382812 C 167.085938 201.480469 167.347656 201.589844 167.417969 201.699219 C 168.359375 203.496094 168.832031 204.394531 168.832031 204.394531 C 169.277344 204.59375 169.496094 204.691406 169.496094 204.691406 C 170.671875 206.78125 171.253906 207.820312 171.253906 207.820312 C 171.324219 208.171875 171.269531 208.613281 171.503906 208.847656 C 173.578125 210.917969 174.613281 211.957031 174.613281 211.957031 C 176.980469 212.984375 178.167969 213.496094 178.167969 213.496094 C 178.03125 213.933594 177.699219 214.453125 177.425781 214.695312 C 172.710938 214.765625 169.964844 214.730469 169.964844 214.730469 C 166.019531 214.792969 162.363281 214.652344 159 214.296875 C 157.109375 214.015625 155.476562 213.378906 154.625 211.890625 C 153.292969 209.558594 154.144531 206.972656 156.175781 205.40625 C 156.480469 204.078125 156.691406 203.125 156.691406 203.125 C 155.140625 201.085938 154.359375 200.0625 154.359375 200.0625 C 153.71875 199.535156 153.535156 198.863281 153.8125 198.054688 C 152.625 195.875 152.035156 194.789062 152.035156 194.789062 C 151.5 194.566406 151.167969 194.324219 151.027344 194.058594 C 146.277344 184.890625 143.902344 180.304688 143.902344 180.304688 C 143.964844 179.847656 143.992188 179.621094 143.992188 179.621094 C 143.425781 179.359375 143.117188 179.027344 143.054688 178.613281 C 142.25 174.929688 141.84375 173.085938 141.84375 173.085938 C 141.574219 168.964844 141.40625 166.363281 141.335938 165.269531 C 141.246094 163.890625 141.898438 162.636719 143.015625 162.097656 C 143.726562 161.75 144.738281 161.644531 145.511719 162.175781 Z M 160.136719 201.414062 C 160.5 201.171875 160.894531 200.855469 161.3125 200.457031 L 159.917969 198.425781 C 159.367188 198.539062 158.84375 198.746094 158.347656 199.039062 L 160.140625 201.410156 Z M 158.339844 196.132812 L 149.308594 182.996094 C 152.6875 189.605469 154.265625 192.691406 154.265625 192.691406 C 154.394531 193.222656 154.257812 193.710938 154.105469 193.925781 C 155.132812 195.832031 155.648438 196.78125 155.648438 196.78125 L 155.65625 196.789062 C 156.007812 196.746094 156.261719 196.730469 156.421875 196.75 L 158.339844 196.136719 Z M 189.804688 186.855469 C 190.324219 187.207031 191.027344 187.738281 191.027344 187.738281 C 193.050781 191.363281 193.953125 192.976562 193.953125 192.976562 C 193.570312 193.328125 193.394531 193.523438 193.394531 193.523438 C 191.277344 189.636719 189.804688 186.855469 189.804688 186.855469 Z M 148.5 165.53125 L 152.484375 168.867188 C 153.335938 168.625 153.761719 168.503906 153.761719 168.503906 L 167.375 170.183594 C 163.027344 169.347656 161.8125 169.117188 161.339844 169.027344 C 160.703125 168.902344 160.195312 168.621094 160.164062 168.007812 Z M 148.5 165.53125 "/><path style=" stroke:none;fill-rule:evenodd;fill:#ffffff;fill-opacity:1;" d="M 146.242188 164.484375 C 150.351562 168.125 152.40625 169.945312 152.40625 169.945312 C 152.40625 169.945312 153.003906 169.769531 154.207031 169.421875 L 182.875 172.914062 L 179.136719 171.894531 C 179.953125 171.347656 178.828125 169.667969 180.316406 170.128906 C 180.316406 170.128906 182.074219 171.207031 185.597656 173.371094 C 186.117188 173.308594 186.765625 173.410156 187.238281 173.625 C 189.820312 174.804688 192.136719 176.753906 194.617188 179.671875 C 194.617188 179.671875 195.855469 181.335938 198.644531 185.082031 C 198.40625 185.101562 198.195312 185.125 198.003906 185.152344 L 194.691406 180.699219 C 192.855469 178.226562 189.554688 174.738281 186.394531 174.207031 C 186.394531 174.207031 175.59375 172.785156 154.335938 170.015625 C 153.789062 170.167969 152.792969 170.496094 152.792969 170.496094 C 172.097656 173.082031 183.714844 174.757812 185.957031 175.058594 C 188.90625 175.449219 192.179688 178.667969 193.875 180.992188 C 195.53125 183.265625 196.574219 184.714844 197.042969 185.351562 C 196.710938 185.4375 196.664062 185.488281 196.503906 185.609375 C 196.246094 185.804688 196.242188 186.011719 196.171875 186.773438 C 196.148438 186.96875 196.75 187.054688 196.617188 187.5 C 196.5625 187.679688 196.484375 187.863281 196.304688 188.449219 C 196.304688 188.449219 195.03125 187.675781 193.292969 186.546875 C 193.292969 186.546875 194.210938 188.222656 195.398438 190.566406 C 195.566406 190.910156 195.382812 191.539062 194.839844 192.457031 C 194.839844 192.457031 194.039062 191.003906 192.0625 187.394531 C 192.238281 187.296875 192.445312 187.066406 192.679688 186.707031 C 192.433594 186.859375 192.128906 186.929688 191.765625 186.914062 C 191.765625 186.914062 191.691406 186.78125 191.535156 186.523438 C 191.46875 186.320312 191.554688 186.109375 191.789062 185.882812 C 191.789062 185.882812 190.390625 183.035156 187.597656 177.339844 C 187.597656 177.339844 187.675781 177.1875 187.835938 176.882812 C 187.40625 176.867188 187.183594 176.625 187.175781 176.152344 C 187.175781 176.152344 187.136719 176.335938 187.0625 176.699219 C 186.753906 176.507812 186.703125 176.109375 186.898438 175.511719 C 185.980469 175.445312 185.671875 176.074219 185.964844 177.40625 C 185.804688 177.445312 185.546875 177.316406 185.1875 177.019531 C 185.472656 177.953125 185.941406 178.34375 187.039062 178.089844 C 187.039062 178.089844 188.011719 180.070312 189.949219 183.941406 C 186.839844 181.34375 182.953125 179.738281 179.027344 178.863281 C 175.816406 178.144531 167.195312 176.316406 153.160156 173.382812 C 153.160156 173.382812 152.660156 172.894531 151.65625 171.921875 C 151.273438 171.460938 151.140625 171.070312 151.265625 170.753906 C 150.890625 170.832031 150.644531 171.070312 150.535156 171.464844 C 150.464844 172.082031 151.140625 172.964844 152.566406 174.113281 C 152.566406 174.113281 153.238281 174.417969 154.574219 175.027344 C 154.574219 175.027344 157.910156 182.726562 164.578125 198.121094 C 164.578125 198.121094 164.644531 198.5625 164.785156 199.445312 C 164.757812 199.597656 164.828125 199.742188 164.992188 199.878906 C 164.992188 199.878906 165.300781 200.121094 165.929688 200.609375 C 165.929688 200.609375 165.949219 201.066406 165.996094 201.980469 C 165.996094 201.980469 166.238281 202.027344 166.726562 202.121094 C 166.726562 202.121094 167.320312 203.207031 168.507812 205.386719 C 168.507812 205.386719 168.683594 205.429688 169.03125 205.523438 C 169.03125 205.523438 169.535156 206.429688 170.539062 208.242188 C 170.539062 208.242188 170.589844 208.515625 170.699219 209.0625 C 170.699219 209.0625 171.683594 210.089844 173.644531 212.148438 C 173.644531 212.148438 173.121094 212.566406 172.066406 213.402344 C 172.066406 213.402344 172.777344 213.183594 174.195312 212.738281 C 174.195312 212.738281 175.046875 213.066406 176.753906 213.722656 C 176.714844 213.902344 176.585938 214.011719 176.363281 214.039062 C 176.363281 214.039062 174.371094 214.011719 170.378906 213.949219 C 170.378906 213.949219 170.253906 213.75 170.011719 213.359375 C 170.011719 213.359375 169.796875 213.527344 169.371094 213.859375 C 166.65625 214.011719 161.089844 214.238281 160.238281 210.769531 C 159.824219 209.085938 160.203125 206.464844 162.128906 205.640625 C 162 205.71875 162.324219 204.875 163.097656 203.117188 C 163.300781 203.09375 163.550781 203.074219 163.828125 203.046875 C 166.289062 207.96875 168.136719 210.699219 169.257812 211.671875 C 169.257812 211.671875 167.582031 208.480469 164.230469 202.101562 C 164.230469 202.101562 163.832031 202.109375 163.039062 202.128906 C 162.410156 202.09375 162.003906 202.203125 161.828125 202.445312 C 161.828125 202.445312 161.605469 203.015625 161.164062 204.160156 C 161.132812 204.058594 161.328125 204.28125 161.757812 204.824219 C 161.757812 204.824219 161.292969 204.71875 160.363281 204.503906 C 160.363281 204.503906 160.378906 205.152344 160.40625 206.445312 C 160.40625 206.445312 160.097656 206.484375 159.46875 206.5625 C 159.46875 206.5625 159.53125 205.300781 159.652344 202.769531 C 159.652344 202.769531 159.460938 202.820312 159.082031 202.929688 C 159.082031 202.929688 158.300781 202.023438 156.730469 200.210938 C 157.03125 199.949219 157.332031 199.640625 157.644531 199.277344 C 157.644531 199.277344 158.429688 200.21875 160 202.109375 C 161.851562 201.839844 163.839844 201.015625 163.996094 199.308594 C 163.996094 199.308594 163.039062 199.851562 162.59375 200.019531 C 162.59375 200.019531 162.296875 199.550781 161.320312 197.992188 C 161.585938 197.902344 161.953125 197.726562 162.417969 197.46875 C 160.601562 197.3125 158.941406 197.703125 157.441406 198.65625 C 156.976562 199.304688 156.144531 199.863281 155.511719 199.078125 C 155.015625 198.460938 155.007812 197.289062 156.550781 197.378906 C 156.550781 197.378906 157.710938 197.007812 160.03125 196.269531 C 160.03125 196.269531 154.519531 187.566406 143.585938 171.367188 C 143.585938 171.367188 143.488281 170.101562 143.199219 166.367188 C 143.183594 165.980469 143.40625 165.558594 143.863281 165.113281 C 143.519531 165.25 143.226562 165.445312 142.96875 165.707031 C 142.96875 165.707031 142.886719 165.460938 142.71875 164.972656 C 142.601562 164.125 142.910156 163.359375 143.644531 162.679688 C 144.054688 162.460938 144.511719 162.46875 145.015625 162.703125 C 145.015625 162.703125 145.351562 163.140625 146.019531 164.015625 C 155.476562 165.902344 160.203125 166.847656 160.203125 166.847656 C 160.390625 166.921875 160.378906 167.148438 160.261719 167.304688 C 150.914062 165.425781 146.234375 164.484375 146.234375 164.484375 Z M 144.566406 171.332031 C 146.328125 174.003906 146.496094 174.136719 145.070312 171.722656 C 145.070312 171.722656 144.945312 170.390625 144.703125 167.726562 C 144.722656 167.453125 144.953125 167.355469 145.386719 167.429688 C 145.386719 167.429688 147.222656 168.046875 150.894531 169.28125 C 150.894531 169.28125 148.953125 167.441406 147.214844 165.933594 C 146.5 165.253906 147.640625 166.640625 148.351562 167.414062 C 145.472656 166.5 144.976562 166.632812 144.976562 166.632812 C 144.484375 166.59375 144.210938 166.746094 144.152344 167.089844 C 144.429688 169.921875 144.566406 171.335938 144.566406 171.335938 Z M 158.171875 203.007812 C 156.679688 201.578125 155.933594 200.859375 155.933594 200.859375 C 157.042969 202.269531 157.59375 202.976562 157.59375 202.976562 C 157.347656 204.117188 157.226562 204.6875 157.226562 204.6875 C 157.859375 203.566406 158.171875 203.007812 158.171875 203.007812 Z M 153.539062 192.992188 C 153.46875 193.375 153.429688 193.5625 153.429688 193.5625 C 153.179688 193.507812 152.851562 193.609375 152.449219 193.871094 C 152.449219 193.871094 152.417969 193.8125 152.359375 193.699219 C 152.265625 193.578125 152.445312 193.390625 152.894531 193.140625 C 152.894531 193.140625 152.6875 193.160156 152.277344 193.207031 C 152.277344 193.207031 150.023438 188.8125 145.515625 180.027344 C 145.515625 180.027344 145.347656 179.953125 145.011719 179.800781 C 145.996094 179.316406 146.558594 179.25 146.703125 179.59375 C 151.117188 188.273438 153.539062 192.988281 153.539062 192.988281 Z M 146.582031 178.449219 C 146.996094 178.40625 147.203125 178.382812 147.203125 178.382812 C 147.203125 178.382812 145.992188 176.617188 143.570312 173.082031 C 144.148438 176.28125 144.4375 177.878906 144.4375 177.878906 C 144.703125 178.636719 145.105469 178.945312 145.648438 178.792969 C 146.277344 178.566406 146.585938 178.453125 146.585938 178.453125 Z M 145.515625 177.238281 C 145.636719 177.238281 145.746094 177.292969 145.828125 177.375 C 145.824219 177.375 145.8125 177.375 145.804688 177.375 C 145.609375 177.375 145.457031 177.539062 145.464844 177.746094 C 145.46875 177.933594 145.605469 178.085938 145.777344 178.113281 C 145.710938 178.15625 145.632812 178.183594 145.542969 178.183594 C 145.296875 178.183594 145.09375 177.972656 145.085938 177.714844 C 145.082031 177.457031 145.273438 177.246094 145.519531 177.246094 Z M 144.265625 163.296875 C 144.386719 163.296875 144.5 163.355469 144.582031 163.453125 C 144.574219 163.453125 144.5625 163.453125 144.554688 163.453125 C 144.359375 163.453125 144.210938 163.644531 144.21875 163.878906 C 144.222656 164.09375 144.355469 164.273438 144.527344 164.304688 C 144.460938 164.355469 144.382812 164.386719 144.296875 164.386719 C 144.050781 164.386719 143.847656 164.140625 143.839844 163.84375 C 143.832031 163.542969 144.027344 163.300781 144.269531 163.300781 Z M 180.183594 170.703125 C 180.28125 170.703125 180.371094 170.75 180.4375 170.828125 C 180.429688 170.828125 180.421875 170.828125 180.414062 170.828125 C 180.257812 170.828125 180.136719 170.984375 180.140625 171.175781 C 180.144531 171.347656 180.253906 171.492188 180.394531 171.515625 C 180.339844 171.554688 180.273438 171.582031 180.207031 171.582031 C 180.007812 171.582031 179.84375 171.382812 179.835938 171.144531 C 179.828125 170.902344 179.984375 170.707031 180.183594 170.707031 Z M 152.777344 171.34375 C 152.65625 171.617188 152.59375 171.753906 152.59375 171.753906 C 152.21875 171.945312 151.925781 171.792969 151.714844 171.296875 C 151.625 170.84375 151.890625 170.640625 152.511719 170.679688 C 152.082031 170.808594 152.023438 171.058594 152.328125 171.433594 C 152.5 171.507812 152.648438 171.476562 152.777344 171.34375 Z M 152.777344 171.34375 "/><path style=" stroke:none;fill-rule:evenodd;fill:#ffffff;fill-opacity:1;" d="M 155.042969 197.167969 C 154.769531 197.273438 154.617188 197.476562 154.574219 197.773438 C 154.574219 197.773438 153.980469 196.59375 152.792969 194.242188 C 153.246094 194.003906 153.492188 193.988281 153.523438 194.183594 C 154.539062 196.171875 155.042969 197.164062 155.042969 197.164062 Z M 155.042969 197.167969 "/><path style=" stroke:none;fill-rule:evenodd;fill:#ffffff;fill-opacity:1;" d="M 155.902344 211.753906 C 156.015625 212.238281 156.300781 212.6875 156.746094 213.101562 C 154.4375 211.507812 154.007812 208.3125 156.242188 206.339844 C 155.863281 206.964844 155.710938 207.367188 155.785156 207.550781 C 158.339844 207.613281 159.371094 207.636719 159.371094 207.636719 C 159.070312 208.46875 159.140625 209.542969 159.265625 210.480469 C 159.503906 211.953125 160.328125 212.851562 161.566406 213.539062 C 160.558594 213.261719 159.625 212.660156 159.113281 211.816406 L 155.902344 211.757812 Z M 155.902344 211.753906 "/><path style=" stroke:none;fill-rule:evenodd;fill:#ffffff;fill-opacity:1;" d="M 188.519531 186.324219 C 188.378906 186.515625 188.257812 186.570312 188.140625 186.484375 C 188.140625 186.484375 187.851562 185.816406 187.269531 184.476562 C 187.667969 184.78125 187.863281 184.933594 187.863281 184.933594 C 188.296875 185.863281 188.515625 186.328125 188.515625 186.328125 Z M 188.519531 186.324219 "/><path style=" stroke:none;fill-rule:evenodd;fill:#ffffff;fill-opacity:1;" d="M 193.726562 197.496094 C 194.015625 197.90625 194.34375 198.054688 194.707031 197.929688 C 194.707031 197.929688 192.800781 194.246094 188.984375 186.875 C 188.945312 186.828125 188.835938 186.792969 188.65625 186.773438 C 188.449219 187.085938 188.21875 187.230469 187.96875 187.210938 C 188.265625 187.394531 188.449219 187.472656 188.515625 187.4375 C 191.988281 194.148438 193.722656 197.5 193.722656 197.5 Z M 193.726562 197.496094 "/><path style=" stroke:none;fill-rule:evenodd;fill:#ffffff;fill-opacity:1;" d="M 195.152344 194.894531 L 194.574219 193.953125 L 193.882812 194.507812 C 194.242188 195.253906 194.59375 195.976562 194.953125 196.683594 L 195.15625 196.503906 L 195.15625 194.898438 Z M 192.199219 195.855469 L 189.570312 197.972656 C 189.546875 199.5 189.535156 200.265625 189.535156 200.265625 C 189.933594 200.707031 190.128906 200.929688 190.128906 200.929688 C 190.128906 200.273438 190.128906 199.945312 190.128906 199.945312 C 191.316406 199.902344 191.90625 199.878906 191.90625 199.878906 C 192.097656 199.164062 192.230469 198.707031 192.296875 198.507812 C 192.386719 199.359375 192.4375 199.785156 192.4375 199.785156 C 192.628906 200.222656 192.921875 200.40625 193.328125 200.332031 L 193.351562 198.136719 Z M 192.199219 195.855469 "/><path style=" stroke:none;fill-rule:evenodd;fill:#ffffff;fill-opacity:1;" d="M 212.042969 187.621094 L 211.09375 187.648438 C 210.910156 186.46875 209.566406 186.289062 208.5625 186.1875 C 208.5625 186.1875 206.386719 186.191406 202.039062 186.199219 C 202.039062 186.199219 201.8125 186.082031 201.355469 185.84375 C 201.355469 185.84375 201.398438 185.945312 201.488281 186.148438 C 201.488281 186.148438 199.96875 186.242188 197.8125 186.40625 L 197.332031 187.25 L 197.476562 186.433594 L 196.871094 186.484375 C 196.871094 186.484375 196.894531 186.386719 196.933594 186.1875 C 196.960938 186.066406 197.042969 186.003906 197.210938 185.992188 L 201.664062 185.570312 C 203.335938 185.453125 205.578125 185.496094 208.46875 185.480469 C 209.847656 185.523438 210.976562 185.804688 211.847656 186.328125 C 211.921875 186.796875 211.984375 187.226562 212.046875 187.628906 Z M 212.042969 187.621094 "/><path style=" stroke:none;fill-rule:evenodd;fill:#ffffff;fill-opacity:1;" d="M 212.433594 191.578125 C 211.652344 192.257812 209.519531 193.933594 206.402344 196.214844 C 206.402344 196.214844 204.585938 196.648438 200.945312 197.515625 C 200.945312 197.515625 200.8125 198.3125 200.554688 199.914062 C 200.617188 193.777344 201.113281 189.34375 202.046875 186.605469 C 204.984375 186.578125 207.335938 186.558594 208.90625 186.636719 C 208.882812 191.484375 208.871094 193.902344 208.871094 193.902344 C 210.683594 192.457031 211.511719 191.796875 211.511719 191.796875 C 211.429688 190.285156 211.316406 188.835938 211.203125 188.058594 C 211.8125 188.058594 212.117188 188.058594 212.117188 188.058594 C 212.332031 190.402344 212.4375 191.574219 212.4375 191.574219 Z M 208.242188 194.203125 L 208.246094 193.636719 L 201.273438 194.078125 C 201.195312 194.988281 201.136719 195.933594 201.089844 196.910156 C 204.382812 196.164062 206.183594 195.746094 206.183594 195.746094 C 207.710938 194.574219 208.238281 194.203125 208.238281 194.203125 Z M 208.25 193.203125 C 208.28125 189.214844 208.3125 187.066406 208.3125 187.066406 C 208.3125 187.066406 206.316406 187.074219 202.324219 187.089844 C 201.871094 189.039062 201.535156 191.214844 201.3125 193.628906 L 208.246094 193.207031 Z M 208.25 193.203125 "/><path style=" stroke:none;fill-rule:evenodd;fill:#ffffff;fill-opacity:1;" d="M 226.976562 200.019531 C 221.210938 199.933594 217.03125 200.011719 217.03125 200.011719 C 217.03125 200.011719 216.101562 199.125 214.25 197.359375 L 213.21875 197.339844 L 213.179688 191.316406 C 213.382812 191.1875 213.585938 191.144531 213.792969 191.191406 C 218.941406 191.390625 221.515625 191.488281 221.515625 191.488281 C 221.722656 191.476562 222.132812 191.699219 222.128906 192.226562 C 222.117188 194.625 222.109375 195.828125 222.109375 195.828125 C 225.5625 198.796875 226.980469 200.015625 226.980469 200.015625 Z M 212.75 197.335938 L 207.480469 197.246094 C 207.507812 197.351562 207.332031 197.085938 206.957031 196.449219 C 206.957031 196.449219 208.808594 195.03125 212.507812 192.203125 C 212.574219 192.160156 212.640625 192.109375 212.699219 192.046875 L 212.75 197.339844 Z M 212.75 197.335938 "/><path style=" stroke:none;fill-rule:evenodd;fill:#ffffff;fill-opacity:1;" d="M 178.179688 170.980469 C 178.484375 171.070312 178.648438 171.210938 178.667969 171.402344 C 178.957031 170.816406 178.921875 170.367188 178.566406 170.066406 C 178.566406 170.066406 172.914062 168.765625 161.605469 166.160156 C 160.746094 166.164062 161.265625 167.109375 160.863281 167.507812 C 161.175781 167.410156 161.332031 167.359375 161.332031 167.359375 C 172.5625 169.773438 178.179688 170.980469 178.179688 170.980469 Z M 178.179688 170.980469 "/><path style=" stroke:none;fill-rule:evenodd;fill:#ffffff;fill-opacity:1;" d="M 231.9375 199.957031 C 231.585938 200.503906 230.925781 200.742188 230.363281 201.007812 C 230.363281 201.007812 230.359375 201.25 230.347656 201.742188 C 230.347656 201.777344 229.433594 201.8125 228.085938 201.847656 L 228.085938 202.15625 C 230.132812 202.152344 231.761719 202.144531 232.144531 202.132812 C 232.328125 202.117188 232.46875 201.878906 232.566406 201.421875 C 232.703125 199.050781 232.613281 195.304688 232.449219 192 C 232.332031 191.742188 231.914062 191.570312 231.195312 191.476562 C 231.164062 191.476562 228.433594 191.453125 222.992188 191.40625 C 223.175781 191.515625 223.195312 191.753906 223.195312 191.753906 C 226.53125 191.828125 228.085938 191.863281 228.085938 191.863281 C 228.382812 191.933594 228.542969 192.074219 228.566406 192.296875 C 228.550781 196.4375 228.542969 198.511719 228.542969 198.511719 C 228.539062 198.675781 228.4375 198.785156 228.238281 198.839844 C 227.335938 198.824219 226.886719 198.816406 226.886719 198.816406 C 227.640625 199.570312 228.019531 199.949219 228.019531 199.949219 C 230.632812 199.949219 231.9375 199.949219 231.9375 199.949219 Z M 227.5625 201.867188 C 223.746094 201.964844 217.367188 202.070312 217.363281 202.183594 C 217.363281 202.183594 223.203125 202.175781 227.5625 202.164062 Z M 227.5625 201.867188 "/><path style=" stroke:none;fill-rule:evenodd;fill:#ffffff;fill-opacity:1;" d="M 213.972656 197.859375 C 215.207031 199.183594 215.824219 199.84375 215.824219 199.84375 L 213.238281 199.835938 L 213.230469 197.851562 Z M 212.773438 199.835938 L 201.25 199.800781 C 201.25 199.800781 201.339844 198.632812 201.488281 197.925781 C 201.488281 197.925781 203.007812 197.578125 206.253906 196.832031 C 206.648438 197.472656 206.84375 197.792969 206.84375 197.792969 L 212.757812 197.847656 Z M 212.773438 199.835938 "/><path style=" stroke:none;fill-rule:evenodd;fill:#ffffff;fill-opacity:1;" d="M 195.339844 201.863281 C 217.894531 202.121094 219.957031 201.695312 195.867188 201.496094 C 195.75 201.519531 195.617188 201.46875 195.507812 201.265625 C 195.507812 201.265625 195.511719 201.144531 195.523438 200.613281 C 195.523438 200.613281 195.78125 200.308594 196.046875 200.207031 C 196.484375 200.03125 198.71875 199.816406 199.96875 199.8125 C 197.535156 199.746094 196.890625 199.789062 196.152344 199.800781 C 196.191406 198.148438 196.3125 196.296875 196.503906 194.28125 L 199.976562 194.148438 L 196.539062 193.898438 C 196.726562 192.039062 196.964844 190.046875 197.261719 187.960938 C 196.421875 190.726562 195.597656 197.160156 195.613281 199.894531 C 195.1875 200.167969 194.972656 200.386719 194.972656 200.386719 C 194.960938 201.101562 194.953125 201.457031 194.953125 201.457031 C 195.03125 201.71875 195.160156 201.851562 195.339844 201.859375 Z M 195.339844 201.863281 "/><path style=" stroke:none;fill-rule:evenodd;fill:#ffffff;fill-opacity:1;" d="M 190.671875 203.324219 C 190.921875 203.320312 191.160156 203.316406 191.382812 203.3125 C 187.636719 204.023438 185.164062 205.058594 183.957031 206.410156 C 185.882812 204.886719 189.089844 203.851562 193.566406 203.304688 C 194.734375 203.332031 194.699219 203.429688 193.460938 203.597656 C 188.636719 204.363281 185.671875 205.402344 184.566406 206.71875 C 183.875 207.539062 183.765625 210.066406 184.316406 211.660156 C 184.585938 212.445312 184.980469 212.695312 185.625 213.007812 C 184.933594 212.957031 183.972656 212.476562 183.621094 211.449219 C 183.242188 210.335938 183.09375 208.4375 183.363281 207.390625 C 183.363281 207.390625 182.402344 207.390625 180.164062 207.390625 C 180.503906 206.496094 180.960938 205.941406 181.535156 205.722656 C 182.988281 204.859375 186.03125 204.0625 190.675781 203.324219 Z M 190.671875 203.324219 "/><path style=" stroke:none;fill-rule:evenodd;fill:#ffffff;fill-opacity:1;" d="M 224.910156 209.652344 C 224.742188 209.835938 224.542969 209.894531 224.316406 209.835938 C 223.984375 209.695312 223.75 209.375 223.609375 208.875 C 223.609375 208.875 223.59375 209.117188 223.5625 209.605469 C 223.167969 209.199219 223.070312 208.53125 223.265625 207.597656 C 223.265625 207.597656 223.414062 207.605469 223.703125 207.621094 C 223.761719 207.300781 223.921875 207.125 224.179688 207.09375 C 224.671875 206.992188 224.921875 207.609375 224.933594 208.945312 C 224.933594 208.945312 225.214844 208.921875 225.777344 208.878906 C 225.777344 208.878906 225.902344 208.445312 226.144531 207.578125 C 226.253906 210.09375 225.484375 211.59375 223.835938 212.078125 C 223.835938 212.078125 217.890625 212.519531 205.996094 213.394531 C 204.246094 213.523438 203.863281 211.136719 203.777344 209.839844 C 203.777344 209.839844 202.539062 209.824219 199.785156 209.792969 C 199.441406 209.8125 199.367188 209.96875 199.257812 210.316406 C 199.199219 208.90625 199.398438 207.078125 200.472656 206.003906 C 201.917969 204.558594 205.164062 203.597656 209.925781 203.144531 C 211.304688 203 212.910156 202.9375 214.734375 202.945312 C 210.546875 203.285156 207.570312 204.136719 205.792969 205.496094 C 208.738281 203.910156 213.082031 203.164062 218.824219 203.265625 C 219.59375 203.421875 220.335938 203.59375 221.050781 203.78125 C 217.324219 203.464844 213.851562 203.621094 210.632812 204.238281 C 206.796875 205.261719 204.792969 206.578125 204.625 208.1875 C 204.859375 207.636719 205.160156 207.320312 205.539062 207.230469 C 206.898438 207.15625 207.574219 207.117188 207.574219 207.117188 C 208.019531 207.464844 208.222656 207.65625 208.191406 207.6875 C 217.664062 207.457031 222.398438 207.347656 222.398438 207.347656 C 222.546875 207.5 222.617188 207.628906 222.601562 207.734375 C 222.648438 209.078125 222.671875 209.746094 222.671875 209.746094 C 222.382812 209.574219 222.234375 209.492188 222.234375 209.492188 C 211.574219 210.101562 206.246094 210.40625 206.246094 210.40625 C 207.324219 210.695312 207.867188 210.84375 207.867188 210.84375 C 207.882812 211.238281 207.890625 211.433594 207.890625 211.433594 C 207.28125 212.027344 206.976562 212.328125 206.976562 212.328125 C 217.894531 211.566406 223.351562 211.183594 223.351562 211.183594 C 224.144531 211.089844 224.660156 210.582031 224.90625 209.65625 Z M 224.910156 209.652344 "/><path style=" stroke:none;fill-rule:evenodd;fill:#ffffff;fill-opacity:1;" d="M 213.128906 189.019531 C 213.074219 188.621094 213.0625 188.449219 213.0625 188.449219 C 223.328125 188.710938 228.542969 188.839844 228.542969 188.839844 C 228.976562 188.851562 229.402344 189.019531 229.453125 189.550781 C 229.503906 190.113281 229.535156 190.457031 229.535156 190.457031 C 229.03125 190.441406 227.8125 190.472656 227.8125 190.472656 C 228.15625 190.40625 228.820312 190.285156 228.816406 190.246094 C 228.804688 190.042969 228.796875 189.902344 228.789062 189.808594 C 228.765625 189.5625 228.671875 189.402344 228.390625 189.398438 C 218.214844 189.148438 213.128906 189.023438 213.128906 189.023438 Z M 213.128906 189.019531 "/><g clip-rule="nonzero" clip-path="url(#078bff04ec)"><g clip-rule="nonzero" clip-path="url(#9ed76140de)"><path style=" stroke:none;fill-rule:nonzero;fill:#0775b4;fill-opacity:1;" d="M 222.4375 138.695312 L 234.8125 138.695312 L 234.8125 151.070312 L 222.4375 151.070312 Z M 222.4375 138.695312 "/></g></g><g style="fill:#ffffff;fill-opacity:1;"><g transform="translate(311.620501, 184.438136)"><path style="stroke:none" d="M 0.96875 -7.28125 L 1.921875 -7.28125 L 1.921875 -0.828125 L 5.359375 -0.828125 L 5.359375 0 L 0.96875 0 Z M 0.96875 -7.28125 "/></g></g><g style="fill:#ffffff;fill-opacity:1;"><g transform="translate(317.205242, 184.438136)"><path style="stroke:none" d="M 0.234375 -6.421875 L 0.234375 -7.28125 L 5.734375 -7.28125 L 5.734375 -6.421875 L 3.515625 -6.421875 L 3.515625 0 L 2.578125 0 L 2.578125 -6.421875 Z M 0.234375 -6.421875 "/></g></g><g style="fill:#ffffff;fill-opacity:1;"><g transform="translate(322.950843, 184.438136)"><path style="stroke:none" d="M 0.96875 -7.28125 C 0.988281 -7.28125 1.054688 -7.273438 1.171875 -7.265625 C 1.296875 -7.265625 1.441406 -7.265625 1.609375 -7.265625 C 1.773438 -7.273438 1.953125 -7.273438 2.140625 -7.265625 C 2.328125 -7.265625 2.5 -7.265625 2.65625 -7.265625 C 3.539062 -7.253906 4.257812 -7.109375 4.8125 -6.828125 C 5.375 -6.554688 5.785156 -6.15625 6.046875 -5.625 C 6.304688 -5.09375 6.4375 -4.445312 6.4375 -3.6875 C 6.4375 -2.875 6.296875 -2.191406 6.015625 -1.640625 C 5.734375 -1.097656 5.304688 -0.6875 4.734375 -0.40625 C 4.160156 -0.132812 3.4375 0 2.5625 0 L 0.96875 0 Z M 1.921875 -6.46875 L 1.921875 -0.796875 L 2.5625 -0.796875 C 3.15625 -0.796875 3.664062 -0.890625 4.09375 -1.078125 C 4.53125 -1.265625 4.863281 -1.566406 5.09375 -1.984375 C 5.332031 -2.398438 5.453125 -2.960938 5.453125 -3.671875 C 5.453125 -4.367188 5.335938 -4.921875 5.109375 -5.328125 C 4.890625 -5.742188 4.566406 -6.035156 4.140625 -6.203125 C 3.710938 -6.378906 3.195312 -6.46875 2.59375 -6.46875 Z M 1.921875 -6.46875 "/></g></g></g></svg>